<svg viewBox="0 0 512 512" xml:space="preserve" xmlns="http://www.w3.org/2000/svg"><path d="M437.013 74.963C390.661 28.765 326.734 0 255.998 0 185.261 0 121.335 28.765 74.983 74.963 28.636 121.305 0 185.355 0 256.073c0 70.566 28.636 134.625 74.983 180.959C121.335 483.232 185.261 512 255.998 512c70.736 0 134.663-28.768 181.015-74.968C483.359 390.698 512 326.64 512 256.073c0-70.718-28.641-134.768-74.987-181.11z" fill="#3c464c" class="fill-000000"></path><path clip-rule="evenodd" d="M384.138 201.512s-2.686-18.847-10.491-27.066c-9.915-10.769-21.118-10.912-26.076-11.624-36.572-2.69-91.426-2.69-91.426-2.69h-.293s-54.708 0-91.29 2.69c-5.235.712-16.292.855-26.213 11.624-7.8 8.22-10.486 27.066-10.486 27.066s-2.701 22.107-2.701 43.929v20.831c0 22.107 2.701 43.935 2.701 43.935s2.687 18.847 10.486 27.207c9.921 10.91 22.967 10.488 28.919 11.619 20.836 2.127 88.877 2.837 88.877 2.837s54.854-.283 91.426-2.837c4.958-.709 16.161-.709 26.076-11.619 7.806-8.36 10.491-27.207 10.491-27.207s2.55-21.827 2.55-43.935v-20.831c0-21.822-2.55-43.929-2.55-43.929zm-84.479 51.586-70.737 38.115V214.69l32.039 17.433 38.698 20.975z" fill="#FFFFFF" fill-rule="evenodd" class="fill-ffffff"></path></svg>